<?xml version="1.0" encoding="UTF-8" standalone="no"?>
<svg
   xmlns:dc="http://purl.org/dc/elements/1.1/"
   xmlns:cc="http://creativecommons.org/ns#"
   xmlns:rdf="http://www.w3.org/1999/02/22-rdf-syntax-ns#"
   xmlns:svg="http://www.w3.org/2000/svg"
   xmlns="http://www.w3.org/2000/svg"
   xmlns:sodipodi="http://sodipodi.sourceforge.net/DTD/sodipodi-0.dtd"
   xmlns:inkscape="http://www.inkscape.org/namespaces/inkscape"
   width="190.53627"
   height="204.79977"
   viewBox="0 0 190.53627 204.79977"
   version="1.1"
   xml:space="preserve"
   style="clip-rule:evenodd;fill-rule:evenodd;stroke-linejoin:round;stroke-miterlimit:1.41420996"
   id="svg15"
   sodipodi:docname="lifterlms-icon-grey.svg"
   inkscape:version="0.92.4 (5da689c313, 2019-01-14)"><metadata
     id="metadata21"><rdf:RDF><cc:Work
         rdf:about=""><dc:format>image/svg+xml</dc:format><dc:type
           rdf:resource="http://purl.org/dc/dcmitype/StillImage" /></cc:Work></rdf:RDF></metadata><defs
     id="defs19" /><sodipodi:namedview
     pagecolor="#ffffff"
     bordercolor="#666666"
     borderopacity="1"
     objecttolerance="10"
     gridtolerance="10"
     guidetolerance="10"
     inkscape:pageopacity="0"
     inkscape:pageshadow="2"
     inkscape:window-width="1920"
     inkscape:window-height="1147"
     id="namedview17"
     showgrid="false"
     inkscape:zoom="3.4521479"
     inkscape:cx="41.493445"
     inkscape:cy="77.781023"
     inkscape:window-x="1912"
     inkscape:window-y="-8"
     inkscape:window-maximized="1"
     inkscape:current-layer="g13" /><clipPath
     id="_clip1"><rect
       x="0.792"
       y="0.486"
       width="256"
       height="256"
       id="rect3" /></clipPath><g
     clip-path="url(#_clip1)"
     id="g13"
     transform="translate(-33.523344,-26.086552)"><path
       d="m 89.312,154.275 -6.883,-3.93 -18.485,31.852 C 47.232,158.996 43.888,127.729 56.866,100.789 l 0.195,-0.197 c 0.788,-1.769 1.771,-3.344 2.556,-4.915 13.176,-22.814 36.185,-36.775 60.568,-39.33 4.327,-5.898 9.047,-11.013 14.356,-15.928 C 99.734,38.453 64.926,55.755 46.246,88.008 22.255,129.695 33.269,182.001 70.237,210.714 l 18.484,-54.866 c 0.199,-0.391 0.396,-0.983 0.591,-1.573 m 112.481,-50.932 c 9.833,22.617 9.243,49.358 -3.933,72.171 -0.786,1.574 -1.769,3.142 -2.752,4.719 l -0.198,0.199 c -16.91,24.776 -45.62,37.556 -74.134,34.606 l 18.486,-31.857 -6.884,-3.934 c -0.393,0.398 -0.786,0.789 -1.18,1.185 L 93.049,223.89 c 43.263,17.699 94.193,0.983 118.182,-40.709 18.683,-32.245 16.324,-70.987 -2.947,-100.089 -1.574,6.88 -3.541,13.763 -6.491,20.251"
       style="fill:#f3f1f1;fill-opacity:1"
       id="path7"
       inkscape:connector-curvature="0" /><path
       style="fill:#f3f1f1;fill-opacity:1"
       d="m 154.57422,0.00390625 c -0.4126,0.01533008 -0.83055,0.07154687 -1.24805,0.16992187 -4.524,1.18199998 -9.04531,2.75343748 -13.57031,4.52343748 -18.68,7.4720004 -34.60841,19.8592184 -45.816407,36.5742184 -7.08,10.62 -11.997265,22.025485 -14.947265,34.021485 l -39.128907,1.375 c -2.756,0 -5.115078,1.966703 -5.705078,4.720703 -0.786,2.752 0.395219,5.308859 2.949219,6.880859 l 38.542969,22.222659 c -3.342,7.473 -2.164047,15.92565 1.376953,23.59765 1.18,2.36 3.539703,3.73807 6.095703,3.53907 8.454,-0.785 16.320281,-4.1291 21.238283,-10.6211 l 38.54297,22.22266 c 2.358,1.378 5.30839,1.18084 7.27539,-0.78516 2.162,-1.967 2.55768,-4.91861 1.17969,-7.47461 l -18.28907,-34.41406 c 8.848,-8.649999 16.51839,-18.481671 22.02539,-29.888671 8.65,-18.091 11.60066,-38.147031 8.84766,-58.207031 -0.785,-4.717001 -1.77048,-9.4380318 -3.14648,-13.9570318 -0.68951,-2.7545 -3.33448,-4.6073105 -6.22266,-4.49999995 z M 127.64062,42.994141 c 1.98269,0.04978 3.97915,0.576093 5.82227,1.621093 5.899,3.539 7.86544,11.012157 4.52344,16.910157 -3.343,5.9 -11.00916,7.867437 -16.91016,4.523437 -5.899,-3.344 -7.86639,-11.013109 -4.52539,-16.912109 2.43444,-4.055563 6.72794,-6.252092 11.08984,-6.142578 z"
       transform="translate(33.523344,26.086552)"
       id="path833"
       inkscape:connector-curvature="0" /><path
       d="m 80.266,219.759 41.689,-47.392 c -1.572,0.197 -3.146,0.393 -4.72,0.59 -6.293,0.394 -12.192,-2.951 -14.942,-8.847 -0.789,-1.377 -1.379,-2.755 -1.968,-4.328 z"
       style="fill:#f3f1f1;fill-opacity:1"
       id="path11"
       inkscape:connector-curvature="0" /></g></svg>